<?xml version="1.0" encoding="UTF-8" standalone="no"?>
<svg width="24px" height="20px" viewBox="0 0 24 20" version="1.1" xmlns="http://www.w3.org/2000/svg" xmlns:xlink="http://www.w3.org/1999/xlink" xmlns:sketch="http://www.bohemiancoding.com/sketch/ns">
    <!-- Generator: Sketch 3.4.3 (16618) - http://www.bohemiancoding.com/sketch -->
    <title>calendar_32</title>
    <desc>Created with Sketch.</desc>
    <defs></defs>
    <g id="Page-1" stroke="none" stroke-width="1" fill="none" fill-rule="evenodd" sketch:type="MSPage">
        <g id="calendar_32" sketch:type="MSLayerGroup" fill="#ffffff">
            <g id="Group" sketch:type="MSShapeGroup">
                <path d="M12.7144,11.1056 C12.4384,11.348 12.136,11.5744 11.8064,11.784 C11.4768,11.996 11.1608,12.2128 10.8568,12.436 C10.2248,12.8672 9.7264,13.3736 9.3608,13.9552 C8.9952,14.5384 8.808,15.2208 8.8,16 L15.1864,16 L15.1864,14.628 L10.6304,14.628 C10.6928,14.4224 10.808,14.228 10.9792,14.044 C11.1464,13.8592 11.3456,13.6832 11.5712,13.512 C11.8,13.3416 12.0464,13.172 12.3136,13.0016 C12.5816,12.8312 12.8488,12.652 13.1168,12.4648 C13.3832,12.2768 13.6424,12.0736 13.892,11.8584 C14.1392,11.6424 14.3632,11.408 14.5584,11.1536 C14.7552,10.8976 14.9112,10.6184 15.0272,10.3136 C15.1424,10.0088 15.2,9.6664 15.2,9.2912 C15.2,8.9872 15.1504,8.6656 15.0536,8.3296 C14.9552,7.9936 14.7872,7.6832 14.5512,7.3944 C14.316,7.1088 14.0056,6.8704 13.6232,6.6824 C13.2416,6.4944 12.7632,6.4 12.1936,6.4 C11.6688,6.4 11.2064,6.4928 10.8104,6.676 C10.4136,6.8592 10.0784,7.1128 9.8008,7.4352 C9.5248,7.7584 9.3176,8.1408 9.1808,8.5856 C9.0424,9.0288 8.9728,9.512 8.9728,10.0304 L10.4952,10.0304 C10.5056,9.7 10.5384,9.3904 10.5952,9.1024 C10.6544,8.816 10.7432,8.568 10.8632,8.3568 C10.9824,8.1456 11.144,7.98 11.344,7.8592 C11.544,7.74 11.7952,7.6768 12.0984,7.6768 C12.428,7.6768 12.6944,7.7336 12.9,7.8456 C13.1048,7.9584 13.2656,8.0976 13.3808,8.2624 C13.496,8.4288 13.5744,8.6072 13.6152,8.8008 C13.6544,8.9936 13.6744,9.1752 13.6744,9.3448 C13.6656,9.712 13.5728,10.0376 13.3928,10.32 C13.2176,10.6008 12.9912,10.864 12.7144,11.1056 L12.7144,11.1056 Z" id="Shape"></path>
                <path d="M0,0 L0,3.2 L0,19.2 L24,19.2 L24,3.2 L24,0 L0,0 L0,0 Z M22.4,17.6 L1.6,17.6 L1.6,4.8 L22.4,4.8 L22.4,17.6 L22.4,17.6 Z" id="Shape"></path>
            </g>
        </g>
    </g>
</svg>