<?xml version="1.0" encoding="UTF-8" standalone="no"?>
<svg width="27px" height="27px" viewBox="0 0 27 27" version="1.1" xmlns="http://www.w3.org/2000/svg" xmlns:xlink="http://www.w3.org/1999/xlink" xmlns:sketch="http://www.bohemiancoding.com/sketch/ns">
    <!-- Generator: Sketch 3.4.3 (16618) - http://www.bohemiancoding.com/sketch -->
    <title>success-confirmation_64</title>
    <desc>Created with Sketch.</desc>
    <defs></defs>
    <g id="Page-1" stroke="none" stroke-width="1" fill="none" fill-rule="evenodd" sketch:type="MSPage">
        <g id="success-confirmation_64" sketch:type="MSLayerGroup" fill="#ffffff">
            <g id="Layer_1" sketch:type="MSShapeGroup">
                <g id="Group">
                    <path d="M11.5714286,15.9931607 L8.39603571,12.81825 L7.03253571,14.18175 L11.5714286,18.721125 L19.9674643,10.3246071 L18.6039643,8.96110714 L11.5714286,15.9931607 Z" id="Shape"></path>
                    <path d="M13.5,0 C6.044625,0 0,6.044625 0,13.5 C0,20.955375 6.044625,27 13.5,27 C20.955375,27 27,20.955375 27,13.5 C27,6.044625 20.955375,0 13.5,0 L13.5,0 Z M13.5,26.0357143 C6.588,26.0357143 0.964285714,20.412 0.964285714,13.5 C0.964285714,6.588 6.588,0.964285714 13.5,0.964285714 C20.412,0.964285714 26.0357143,6.588 26.0357143,13.5 C26.0357143,20.412 20.412,26.0357143 13.5,26.0357143 L13.5,26.0357143 Z" id="Shape"></path>
                </g>
            </g>
        </g>
    </g>
</svg>