<?xml version="1.0" encoding="UTF-8" standalone="no"?>
<svg width="26px" height="26px" viewBox="0 0 26 26" version="1.1" xmlns="http://www.w3.org/2000/svg" xmlns:xlink="http://www.w3.org/1999/xlink" xmlns:sketch="http://www.bohemiancoding.com/sketch/ns">
    <!-- Generator: Sketch 3.4.3 (16618) - http://www.bohemiancoding.com/sketch -->
    <title>collaborate-group_64</title>
    <desc>Created with Sketch.</desc>
    <defs></defs>
    <g id="Page-1" stroke="none" stroke-width="1" fill="none" fill-rule="evenodd" sketch:type="MSPage">
        <g id="collaborate-group_64" sketch:type="MSLayerGroup" fill="#ffffff">
            <g id="Layer_1" sketch:type="MSShapeGroup">
                <g id="Group">
                    <path d="M5.57142857,19.5 C8.13567857,19.5 10.2142857,17.4213929 10.2142857,14.8571429 C10.2142857,12.2928929 8.13567857,10.2142857 5.57142857,10.2142857 C3.00717857,10.2142857 0.928571429,12.2928929 0.928571429,14.8571429 C0.928571429,17.4213929 3.00717857,19.5 5.57142857,19.5 L5.57142857,19.5 Z M5.57142857,11.1428571 C7.61939286,11.1428571 9.28571429,12.8091786 9.28571429,14.8571429 C9.28571429,16.9051071 7.61939286,18.5714286 5.57142857,18.5714286 C3.52346429,18.5714286 1.85714286,16.9051071 1.85714286,14.8571429 C1.85714286,12.8091786 3.52346429,11.1428571 5.57142857,11.1428571 L5.57142857,11.1428571 Z" id="Shape"></path>
                    <path d="M15.7857143,14.8571429 C15.7857143,17.4213929 17.8643214,19.5 20.4285714,19.5 C22.9928214,19.5 25.0714286,17.4213929 25.0714286,14.8571429 C25.0714286,12.2928929 22.9928214,10.2142857 20.4285714,10.2142857 C17.8643214,10.2142857 15.7857143,12.2928929 15.7857143,14.8571429 L15.7857143,14.8571429 Z M20.4285714,11.1428571 C22.4765357,11.1428571 24.1428571,12.8091786 24.1428571,14.8571429 C24.1428571,16.9051071 22.4765357,18.5714286 20.4285714,18.5714286 C18.3806071,18.5714286 16.7142857,16.9051071 16.7142857,14.8571429 C16.7142857,12.8091786 18.3806071,11.1428571 20.4285714,11.1428571 L20.4285714,11.1428571 Z" id="Shape"></path>
                    <path d="M17.6428571,4.64285714 C17.6428571,2.07860714 15.56425,0 13,0 C10.43575,0 8.35714286,2.07860714 8.35714286,4.64285714 C8.35714286,7.20710714 10.43575,9.28571429 13,9.28571429 C15.56425,9.28571429 17.6428571,7.20710714 17.6428571,4.64285714 L17.6428571,4.64285714 Z M13,8.35714286 C10.9520357,8.35714286 9.28571429,6.69082143 9.28571429,4.64285714 C9.28571429,2.59489286 10.9520357,0.928571429 13,0.928571429 C15.0479643,0.928571429 16.7142857,2.59489286 16.7142857,4.64285714 C16.7142857,6.69082143 15.0479643,8.35714286 13,8.35714286 L13,8.35714286 Z" id="Shape"></path>
                    <path d="M9.28571429,21.3571429 L1.85714286,21.3571429 C0.831535714,21.3571429 0,22.1886786 0,23.2142857 L0,26 L11.1428571,26 L11.1428571,23.2142857 C11.1428571,22.1886786 10.3113214,21.3571429 9.28571429,21.3571429 L9.28571429,21.3571429 Z" id="Shape"></path>
                    <path d="M24.1428571,21.3571429 L16.7142857,21.3571429 C15.6886786,21.3571429 14.8571429,22.1886786 14.8571429,23.2142857 L14.8571429,26 L26,26 L26,23.2142857 C26,22.1886786 25.1684643,21.3571429 24.1428571,21.3571429 L24.1428571,21.3571429 Z" id="Shape"></path>
                </g>
            </g>
        </g>
    </g>
</svg>