<svg width="512" height="512" xmlns="http://www.w3.org/2000/svg">

 <g>
  <title>background</title>
  <rect fill="none" id="canvas_background" height="402" width="582" y="-1" x="-1"/>
 </g>
 <g>
  <title>Layer 1</title>
  <path fill="white" id="svg_66" d="m272,0l-32,0c-97.219,0 -176,78.797 -176,176c0,68.398 39.009,127.682 96,156.812l0,19.188c0,17.672 14.312,32 32,32l128,0c17.688,0 32,-14.328 32,-32l0,-19.195c56.982,-29.133 96,-88.412 96,-156.805c0,-97.203 -78.812,-176 -176,-176zm16,286.857l0,33.143l-64,0l0,-33.143c-54.267,-7.766 -96,-54.433 -96,-110.857c0,-61.859 50.156,-112 112,-112l32,0c61.844,0 112,50.141 112,112c0,56.425 -41.733,103.092 -96,110.857z" clip-rule="evenodd" fill-rule="evenodd"/>
  <path fill="white" id="svg_67" d="m208,416l96,0c8.844,0 16,7.172 16,16s-7.156,16 -16,16l-96,0c-8.844,0 -16,-7.172 -16,-16s7.156,-16 16,-16z" clip-rule="evenodd" fill-rule="evenodd"/>
  <path fill="white" id="svg_68" d="m240,480l32,0c8.844,0 16,7.172 16,16s-7.156,16 -16,16l-32,0c-8.844,0 -16,-7.172 -16,-16s7.156,-16 16,-16z" clip-rule="evenodd" fill-rule="evenodd"/>
 </g>
</svg>