<?xml version="1.0" encoding="UTF-8" standalone="no"?>
<svg width="20px" height="25px" viewBox="0 0 20 25" version="1.1" xmlns="http://www.w3.org/2000/svg" xmlns:xlink="http://www.w3.org/1999/xlink" xmlns:sketch="http://www.bohemiancoding.com/sketch/ns">
    <!-- Generator: Sketch 3.4.3 (16618) - http://www.bohemiancoding.com/sketch -->
    <title>location-map_32</title>
    <desc>Created with Sketch.</desc>
    <defs></defs>
    <g id="Page-1" stroke="none" stroke-width="1" fill="none" fill-rule="evenodd" sketch:type="MSPage">
        <g id="location-map_32" sketch:type="MSLayerGroup" fill="#ffffff">
            <g id="Group" sketch:type="MSShapeGroup">
                <path d="M16.501,2.83152778 C14.7521389,1.08186111 12.3354722,0 9.66666667,0 C6.99705556,0 4.58038889,1.08186111 2.83233333,2.83152778 C1.08266667,4.58119444 0,6.99705556 0,9.66666667 C0,12.4925556 1.08266667,15.0518056 2.83233333,16.9037778 L9.66666667,24.1666667 L16.501,16.9037778 C18.2506667,15.0518056 19.3333333,12.4925556 19.3333333,9.66666667 C19.3333333,6.99705556 18.2506667,4.58119444 16.501,2.83152778 L16.501,2.83152778 Z M15.3281111,15.7993611 L9.66666667,21.81525 L4.00280556,15.7969444 C2.46097222,14.1640833 1.61111111,11.9874722 1.61111111,9.66666667 C1.61111111,7.51502778 2.44888889,5.49227778 3.97138889,3.97058333 C5.49227778,2.44888889 7.51502778,1.61111111 9.66666667,1.61111111 C11.8183056,1.61111111 13.8410556,2.44888889 15.3619444,3.97138889 C16.8836389,5.49227778 17.7222222,7.51502778 17.7222222,9.66666667 C17.7222222,11.9874722 16.8723611,14.1640833 15.3281111,15.7993611 L15.3281111,15.7993611 Z" id="Shape"></path>
                <circle id="Oval" cx="9.66666667" cy="9.66666667" r="3.22222222"></circle>
            </g>
        </g>
    </g>
</svg>