<?xml version="1.0" encoding="UTF-8" standalone="no"?>
<svg width="25px" height="25px" viewBox="0 0 25 25" version="1.1" xmlns="http://www.w3.org/2000/svg" xmlns:xlink="http://www.w3.org/1999/xlink" xmlns:sketch="http://www.bohemiancoding.com/sketch/ns">
    <!-- Generator: Sketch 3.4.3 (16618) - http://www.bohemiancoding.com/sketch -->
    <title>catalog_64</title>
    <desc>Created with Sketch.</desc>
    <defs></defs>
    <g id="Page-1" stroke="none" stroke-width="1" fill="none" fill-rule="evenodd" sketch:type="MSPage">
        <g id="catalog_64" sketch:type="MSLayerGroup" fill="#4178be">
            <g id="Layer_1" sketch:type="MSShapeGroup">
                <path d="M17.3076923,0 C15.3846154,0 13.4615385,0.961538462 12.5,1.92307692 C11.5384615,0.961538462 9.61538462,0 7.69230769,0 L0,0 L0,23.0769231 L7.69230769,23.0769231 C9.61538462,23.0769231 11.5384615,24.0384615 12.5,25 C13.4615385,24.0384615 15.3846154,23.0769231 17.3076923,23.0769231 L25,23.0769231 L25,0 L17.3076923,0 L17.3076923,0 Z M12.5,23.7423077 C11.3293269,22.8817308 9.53942308,22.1153846 7.69230769,22.1153846 L0.961538462,22.1153846 L0.961538462,0.961538462 L7.69230769,0.961538462 C9.325,0.961538462 11.0043269,1.7875 11.8201923,2.60288462 L12.5,3.28317308 L12.5,23.7423077 L12.5,23.7423077 Z M22.1153846,16.3461538 L15.3846154,16.3461538 L15.3846154,15.3846154 L22.1153846,15.3846154 L22.1153846,16.3461538 L22.1153846,16.3461538 Z M22.1153846,13.4615385 L15.3846154,13.4615385 L15.3846154,12.5 L22.1153846,12.5 L22.1153846,13.4615385 L22.1153846,13.4615385 Z M22.1153846,10.5769231 L15.3846154,10.5769231 L15.3846154,9.61538462 L22.1153846,9.61538462 L22.1153846,10.5769231 L22.1153846,10.5769231 Z M22.1153846,7.69230769 L15.3846154,7.69230769 L15.3846154,6.73076923 L22.1153846,6.73076923 L22.1153846,7.69230769 L22.1153846,7.69230769 Z" id="Shape"></path>
            </g>
        </g>
    </g>
</svg>