<?xml version="1.0" encoding="UTF-8" standalone="no"?>
<svg width="23px" height="23px" viewBox="0 0 23 23" version="1.1" xmlns="http://www.w3.org/2000/svg" xmlns:xlink="http://www.w3.org/1999/xlink" xmlns:sketch="http://www.bohemiancoding.com/sketch/ns">
    <!-- Generator: Sketch 3.4.3 (16618) - http://www.bohemiancoding.com/sketch -->
    <title>search</title>
    <desc>Created with Sketch.</desc>
    <defs></defs>
    <g id="Page-1" stroke="none" stroke-width="1" fill="none" fill-rule="evenodd" sketch:type="MSPage">
        <g id="search" sketch:type="MSLayerGroup" fill="#ffffff">
            <g id="Icon" transform="translate(0.178571, 0.178571)" sketch:type="MSShapeGroup">
                <path d="M8.28571429,2.07142857 C11.7128929,2.07142857 14.5,4.85853571 14.5,8.28571429 C14.5,11.7128929 11.7128929,14.5 8.28571429,14.5 C4.85853571,14.5 2.07142857,11.7128929 2.07142857,8.28571429 C2.07142857,4.85853571 4.85853571,2.07142857 8.28571429,2.07142857 L8.28571429,2.07142857 Z M8.28571429,0 C3.70992857,0 0,3.70992857 0,8.28571429 C0,12.8604643 3.70992857,16.5714286 8.28571429,16.5714286 C12.8615,16.5714286 16.5714286,12.8604643 16.5714286,8.28571429 C16.5714286,3.70992857 12.8615,0 8.28571429,0 L8.28571429,0 L8.28571429,0 Z" id="Shape"></path>
                <path d="M14.4996223,17.6065768 L17.6069985,14.4992006 L22.7854706,19.6776727 L19.6780944,22.7850489 L14.4996223,17.6065768 L14.4996223,17.6065768 Z" id="Rectangle-path"></path>
                <path d="M8.28571429,2.07142857 C11.7128929,2.07142857 14.5,4.85853571 14.5,8.28571429 C14.5,11.7128929 11.7128929,14.5 8.28571429,14.5 C4.85853571,14.5 2.07142857,11.7128929 2.07142857,8.28571429 C2.07142857,4.85853571 4.85853571,2.07142857 8.28571429,2.07142857 L8.28571429,2.07142857 Z M8.28571429,0 C3.70992857,0 0,3.70992857 0,8.28571429 C0,12.8604643 3.70992857,16.5714286 8.28571429,16.5714286 C12.8615,16.5714286 16.5714286,12.8604643 16.5714286,8.28571429 C16.5714286,3.70992857 12.8615,0 8.28571429,0 L8.28571429,0 L8.28571429,0 Z" id="Shape"></path>
                <path d="M14.4996223,17.6065768 L17.6069985,14.4992006 L22.7854706,19.6776727 L19.6780944,22.7850489 L14.4996223,17.6065768 L14.4996223,17.6065768 Z" id="Rectangle-path"></path>
            </g>
        </g>
    </g>
</svg>