<?xml version="1.0" encoding="UTF-8" standalone="no"?>
<svg width="23px" height="23px" viewBox="0 0 23 23" version="1.1" xmlns="http://www.w3.org/2000/svg" xmlns:xlink="http://www.w3.org/1999/xlink" xmlns:sketch="http://www.bohemiancoding.com/sketch/ns">
    <!-- Generator: Sketch 3.4.3 (16618) - http://www.bohemiancoding.com/sketch -->
    <title>settings_64</title>
    <desc>Created with Sketch.</desc>
    <defs></defs>
    <g id="Page-1" stroke="none" stroke-width="1" fill="none" fill-rule="evenodd" sketch:type="MSPage">
        <g id="settings_64" sketch:type="MSLayerGroup" fill="#ffffff">
            <g id="Layer_1" sketch:type="MSShapeGroup">
                <g id="Group">
                    <path d="M22.5139333,3.73826667 L19.2594333,6.99315 C18.8101667,7.44203333 18.22175,7.66666667 17.6333333,7.66666667 C17.0449167,7.66666667 16.4565,7.44203333 16.0072333,6.99315 C15.1087,6.095 15.1087,4.63871667 16.00685,3.74056667 L19.26135,0.485683333 C18.5257333,0.173266667 17.7165167,0 16.8666667,0 C13.47915,0 10.7333333,2.74581667 10.7333333,6.13333333 C10.7333333,6.83406667 10.8567667,7.50451667 11.07335,8.13165 L0.785833333,18.4191667 C-0.261816667,19.4672 -0.261816667,21.1661333 0.786216667,22.2137833 C1.31023333,22.7378 1.99678333,23 2.68333333,23 C3.36988333,23 4.05643333,22.7378 4.58045,22.2141667 L14.8675833,11.92665 C15.4951,12.1432333 16.1659333,12.2666667 16.8666667,12.2666667 C20.2541833,12.2666667 23,9.52085 23,6.13333333 C23,5.28348333 22.8267333,4.47388333 22.5139333,3.73826667 L22.5139333,3.73826667 Z M16.8666667,11.5 C16.2790167,11.5 15.6906,11.3995667 15.1179,11.20215 L14.6644167,11.0453667 L14.3251667,11.3846167 L4.03841667,21.6721333 C3.67655,22.034 3.19508333,22.2333333 2.68333333,22.2333333 C2.17158333,22.2333333 1.69011667,22.034 1.32825,21.67175 C0.581133333,20.9246333 0.58075,19.7087 1.32786667,18.9612 L11.6153833,8.67368333 L11.9546333,8.33481667 L11.7982333,7.88171667 C11.6004333,7.30863333 11.5,6.72021667 11.5,6.13333333 C11.5,3.174 13.9073333,0.766666667 16.8666667,0.766666667 C17.1871333,0.766666667 17.503,0.794266667 17.8131167,0.849466667 L15.4648167,3.19815 C14.2692,4.39415 14.2695833,6.33956667 15.4652,7.5348 C16.0440333,8.1144 16.81415,8.43333333 17.6333333,8.43333333 C18.4525167,8.43333333 19.2226333,8.1144 19.8014667,7.53518333 L22.15015,5.1865 C22.2057333,5.49661667 22.2333333,5.81286667 22.2333333,6.13333333 C22.2333333,9.09266667 19.826,11.5 16.8666667,11.5 L16.8666667,11.5 Z" id="Shape"></path>
                    <circle id="Oval" cx="2.68333333" cy="20.3166667" r="0.766666667"></circle>
                </g>
            </g>
        </g>
    </g>
</svg>