<?xml version="1.0" encoding="UTF-8" standalone="no"?>
<svg width="26px" height="26px" viewBox="0 0 26 26" version="1.1" xmlns="http://www.w3.org/2000/svg" xmlns:xlink="http://www.w3.org/1999/xlink" xmlns:sketch="http://www.bohemiancoding.com/sketch/ns">
    <!-- Generator: Sketch 3.4.3 (16618) - http://www.bohemiancoding.com/sketch -->
    <title>rating-star_64</title>
    <desc>Created with Sketch.</desc>
    <defs></defs>
    <g id="Page-1" stroke="none" stroke-width="1" fill="none" fill-rule="evenodd" sketch:type="MSPage">
        <g id="rating-star_64" sketch:type="MSLayerGroup" fill="#000000">
            <g id="Layer_1" sketch:type="MSShapeGroup">
                <path d="M25.9995738,10.2295082 L16.6225246,9.37704918 L13.2126885,0 L9.80285246,9.37704918 L0.425803279,10.2295082 L8.09793443,16.1967213 L5.54055738,25.5737705 L13.2126885,19.6065574 L20.8848197,25.5737705 L18.3274426,16.1967213 L25.9995738,10.2295082 L25.9995738,10.2295082 Z M19.3896066,23.3309508 L13.7360984,18.933541 L13.2126885,18.5264918 L12.6892787,18.933541 L7.03619672,23.3309508 L8.92055738,16.4213443 L9.07016393,15.8727869 L8.62177049,15.5241311 L2.65455738,10.882918 L9.88042623,10.2260984 L10.4196066,10.177082 L10.6045902,9.66859016 L13.213541,2.49472131 L15.8224918,9.66859016 L16.0074754,10.177082 L16.5466557,10.2260984 L23.7725246,10.882918 L17.8053115,15.5241311 L17.356918,15.8727869 L17.5065246,16.4213443 L19.3896066,23.3309508 L19.3896066,23.3309508 Z" id="Shape"></path>
            </g>
        </g>
    </g>
</svg>