<?xml version="1.0" encoding="UTF-8" standalone="no"?>
<svg width="33px" height="33px" viewBox="0 0 33 33" version="1.1" xmlns="http://www.w3.org/2000/svg" xmlns:xlink="http://www.w3.org/1999/xlink" xmlns:sketch="http://www.bohemiancoding.com/sketch/ns">
    <!-- Generator: Sketch 3.4.3 (16618) - http://www.bohemiancoding.com/sketch -->
    <title>logo</title>
    <desc>Created with Sketch.</desc>
    <defs>
        <path id="path-1" d="M0,0 L32.9577907,0 L32.9577907,32.9507741 L0,32.9507741"></path>
    </defs>
    <g id="Page-1" stroke="none" stroke-width="1" fill="none" fill-rule="evenodd" sketch:type="MSPage">
        <g id="logo" sketch:type="MSLayerGroup">
            <path d="M19.3181561,21.0587996 C21.0035681,14.2427099 20.770814,8.73708195 19.2271595,8.07576633 C19.2181694,8.07149059 19.2087409,8.07072315 19.1997508,8.06666667 L19.0806877,9.0656567 C19.0890199,9.06664341 19.0982292,9.0656567 19.107,9.06763012 C20.2744983,9.34643079 20.0350565,16.2997829 18.8310498,21.1712846 C17.6293455,26.0333577 14.5999236,32.2247497 13.5415116,31.6773444 L13.2,32.5251484 C13.2287243,32.5350155 13.2540498,32.5524474 13.2828837,32.56067 C14.8969236,33.0277132 17.6331827,27.8754374 19.3181561,21.0587996" id="Fill-1" fill="#000000" sketch:type="MSShapeGroup"></path>
            <path d="M21.2380266,31.157835 C18.1291196,31.0933699 14.2796312,29.2885659 11.0426711,26.0846058 C6.05002326,21.138443 4.37754817,14.7019081 7.31586379,11.7333333 L8.0609402,12.4702968 C5.5288206,15.027742 6.67954485,21.2091573 11.2627076,25.747041 C15.8443356,30.2852536 22.1517209,31.4901373 24.684608,28.9334596 L25.4280399,29.6703134 C24.3951728,30.7139247 22.9251927,31.1918217 21.2380266,31.157835" id="Fill-2" fill="#000000" sketch:type="MSShapeGroup"></path>
            <path d="M21.2483841,10.2666667 C23.2006465,10.2666667 24.8544837,10.8759059 25.9030286,12.1447065 L25.0955701,12.8110653 C22.8023442,10.0364341 16.4086764,10.6120155 11.4374073,14.7202414 C6.4644937,18.8291251 4.76866646,24.9402647 7.06090566,27.7154441 L6.25311828,28.3820221 C3.59294553,25.1628228 5.83552028,18.9012647 11.2525635,14.4238992 C14.5357894,11.7097863 18.2450552,10.2666667 21.2483841,10.2666667" id="Fill-3" fill="#000000" sketch:type="MSShapeGroup"></path>
            <path d="M4.74496457,22.2202188 C4.15578849,21.491149 8.74991474,19.0382952 15.9553167,17.9039065 C23.132433,16.7739032 27.7810476,17.6980128 27.8230377,18.5587537 L28.8591938,18.4037304 C28.4095825,15.6016906 16.3364064,17.4713982 15.8224397,17.5520892 C15.3086921,17.6331092 3.23781839,19.5671723 3.67843966,22.3746939 C3.67997454,22.3778733 3.68085162,22.3813816 3.68172869,22.3834646 L4.74638982,22.2223019 C4.74529348,22.2218633 4.74496457,22.2202188 4.74496457,22.2202188" id="Fill-4" fill="#000000" sketch:type="MSShapeGroup"></path>
            <path d="M10.434639,26.0027209 C9.93744629,26.0027209 9.53333333,25.5968538 9.53333333,25.1014153 C9.53333333,24.6026877 9.93744629,24.2 10.434639,24.2 C10.9327087,24.2 11.3352868,24.6026877 11.3352868,25.1014153 C11.3352868,25.5968538 10.9327087,26.0027209 10.434639,26.0027209" id="Fill-5" fill="#000000" sketch:type="MSShapeGroup"></path>
            <path d="M10.4337619,16.469278 C9.93766556,16.469278 9.53333333,16.065165 9.53333333,15.5687398 C9.53333333,15.0708893 9.93766556,14.6666667 10.4337619,14.6666667 C10.9310642,14.6666667 11.3351772,15.0708893 11.3351772,15.5687398 C11.3351772,16.065165 10.9310642,16.469278 10.4337619,16.469278" id="Fill-6" fill="#000000" sketch:type="MSShapeGroup"></path>
            <path d="M17.5747962,18.2829258 C17.1843876,18.2829258 16.8666667,17.9659723 16.8666667,17.5744673 C16.8666667,17.1849358 17.1843876,16.8666667 17.5747962,16.8666667 C17.965753,16.8666667 18.2831451,17.1849358 18.2831451,17.5744673 C18.2831451,17.9659723 17.965753,18.2829258 17.5747962,18.2829258" id="Fill-7" fill="#000000" sketch:type="MSShapeGroup"></path>
            <path d="M19.2344197,20.8688394 C18.7374463,20.8688394 18.3333333,20.4650554 18.3333333,19.9690687 C18.3333333,19.4709989 18.7374463,19.0666667 19.2344197,19.0666667 C19.7311739,19.0666667 20.1352868,19.4709989 20.1352868,19.9690687 C20.1352868,20.4650554 19.7311739,20.8688394 19.2344197,20.8688394" id="Fill-8" fill="#000000" sketch:type="MSShapeGroup"></path>
            <path d="M26.249691,12.4666667 C28.9107409,15.6859756 26.8606844,22.0672547 21.4439701,26.5444009 C16.0268173,31.0211085 9.26050166,31.9240587 6.6,28.7050786 L7.40833555,28.0374042 C8.97117608,30.6565736 15.8111661,29.9054673 20.7833123,25.7960354 C25.7549103,21.6878095 27.6991694,15.2921683 25.4426711,13.1331351 L26.249691,12.4666667" id="Fill-9" fill="#000000" sketch:type="MSShapeGroup"></path>
            <path d="M25.446825,28.9898143 L24.7022968,28.2535087 C27.234526,25.6960635 25.6827586,19.8043027 21.0995958,15.2660901 C16.5172004,10.7278775 10.6107486,9.23235255 8.07840975,11.7897977 L7.33333333,11.0531632 C10.2731838,8.08557514 16.9009214,9.57967481 21.894227,14.5244123 C26.887423,19.4683824 28.3845925,26.0216781 25.446825,28.9898143" id="Fill-10" fill="#000000" sketch:type="MSShapeGroup"></path>
            <path d="M16.7820288,23.3707121 C18.3639457,23.1406988 29.2857398,21.1430476 28.8440221,18.3364031 L28.8435836,18.3333333 L27.8083045,18.4880277 L27.8083045,18.4900011 C27.8276002,19.2895659 23.7005172,21.2194629 16.5003776,22.354619 C9.29903212,23.4891174 5.21185604,22.989732 4.73110853,22.1514662 L3.66666667,22.3136157 C4.30331451,25.1023898 14.857175,23.6499513 16.7820288,23.3707121" id="Fill-11" fill="#000000" sketch:type="MSShapeGroup"></path>
            <path d="M15.4,4.85911296 L15.4,0.676006645 C15.4,0.301495017 15.701495,0 16.0761163,0 C16.4506279,0 16.7555216,0.301495017 16.7555216,0.676006645 L16.7555216,4.85911296 C16.7555216,5.23307641 16.4506279,5.53698339 16.0761163,5.53698339 C15.701495,5.53698339 15.4,5.23307641 15.4,4.85911296" id="Fill-12" fill="#000000" sketch:type="MSShapeGroup"></path>
            <path d="M23.1184795,7.26018272 C22.8750908,7.14440864 22.7333333,6.9009103 22.7333333,6.64776412 C22.7333333,6.55040864 22.7547121,6.45020266 22.80032,6.35745183 L24.6043566,2.5839402 C24.7213367,2.34044186 24.9650543,2.2 25.2173234,2.2 C25.3141307,2.2 25.4136788,2.22028239 25.5076357,2.26709635 C25.7513533,2.38166445 25.8937685,2.62560133 25.8937685,2.87721262 C25.8937685,2.97555482 25.8733765,3.07554153 25.8275493,3.16971761 L24.0215393,6.94125581 C23.9060941,7.18409635 23.6636921,7.32695017 23.411423,7.32695017 C23.3125327,7.32695017 23.2127652,7.30502326 23.1184795,7.26018272" id="Fill-13" fill="#000000" sketch:type="MSShapeGroup"></path>
            <path d="M9.37572757,7.26018272 C9.28177076,7.30502326 9.18233223,7.32695017 9.08431894,7.32695017 C8.8316113,7.32695017 8.58866113,7.18409635 8.47299668,6.94125581 L6.66808306,3.16971761 C6.62181728,3.07554153 6.6,2.97555482 6.6,2.87721262 C6.6,2.62560133 6.74340199,2.38166445 6.9871196,2.26709635 C7.08107641,2.22028239 7.18007641,2.2 7.27874751,2.2 C7.52992027,2.2 7.77319934,2.34044186 7.89050831,2.5839402 L9.69531229,6.35745183 C9.74004319,6.45020266 9.7616412,6.55040864 9.7616412,6.64776412 C9.7616412,6.9009103 9.61988372,7.14440864 9.37572757,7.26018272" id="Fill-14" fill="#000000" sketch:type="MSShapeGroup"></path>
            <path d="M27.9682979,11.30867 C27.8990089,11.1979391 27.8666667,11.0751484 27.8666667,10.9516999 C27.8666667,10.7256334 27.9794806,10.5038427 28.1854839,10.3751318 L31.7378627,8.16972315 C31.8494707,8.10087265 31.9725903,8.06666667 32.0952713,8.06666667 C32.3217763,8.06666667 32.5430188,8.17980952 32.6715105,8.38668992 C32.741567,8.49983278 32.7728128,8.62229457 32.7728128,8.74333112 C32.7728128,8.97148062 32.6605471,9.1916268 32.4545437,9.32121484 L28.9006301,11.5254175 C28.7893511,11.5967896 28.66667,11.6285836 28.5435504,11.6285836 C28.3178128,11.6285836 28.0961318,11.5160986 27.9682979,11.30867" id="Fill-15" fill="#000000" sketch:type="MSShapeGroup"></path>
            <path d="M4.80495349,11.30867 C4.67646179,11.5160986 4.45620598,11.6285836 4.22981063,11.6285836 C4.10745847,11.6285836 3.9841196,11.5967896 3.87327907,11.5254175 L0.320900332,9.32121484 C0.114348837,9.1916268 0,8.97148062 0,8.74333112 C0,8.62229457 0.033,8.49983278 0.102946844,8.38668992 C0.229903654,8.17980952 0.451803987,8.06666667 0.678528239,8.06666667 C0.800332226,8.06666667 0.923890365,8.10087265 1.03604651,8.16972315 L4.58798671,10.3751318 C4.7935515,10.5038427 4.90746179,10.7256334 4.90746179,10.9516999 C4.90746179,11.0751484 4.87490033,11.1979391 4.80495349,11.30867" id="Fill-16" fill="#000000" sketch:type="MSShapeGroup"></path>
            <path d="M16.0835836,24.0991849 C15.3022182,24.0991849 14.6666667,23.464072 14.6666667,22.6828162 C14.6666667,21.9017796 15.3022182,21.2666667 16.0835836,21.2666667 C16.864072,21.2666667 17.4994042,21.9017796 17.4994042,22.6828162 C17.4994042,23.464072 16.864072,24.0991849 16.0835836,24.0991849" id="Fill-17" fill="#000000" sketch:type="MSShapeGroup"></path>
            <path d="M22.8111982,18.4897209 C21.9592281,18.4897209 21.2666667,17.7958439 21.2666667,16.9448605 C21.2666667,16.0927807 21.9592281,15.4 22.8111982,15.4 C23.6628394,15.4 24.3559491,16.0927807 24.3559491,16.9448605 C24.3559491,17.7958439 23.6628394,18.4897209 22.8111982,18.4897209" id="Fill-18" fill="#000000" sketch:type="MSShapeGroup"></path>
            <path d="M21.4726944,27.5472525 C20.5502292,27.5472525 19.8,26.7969136 19.8,25.8744485 C19.8,24.9519834 20.5502292,24.2 21.4726944,24.2 C22.3960365,24.2 23.1472525,24.9519834 23.1472525,25.8744485 C23.1472525,26.7969136 22.3960365,27.5472525 21.4726944,27.5472525" id="Fill-19" fill="#000000" sketch:type="MSShapeGroup"></path>
            <path d="M14.3983178,19.9960875 C13.3329989,19.9960875 12.4666667,19.1296456 12.4666667,18.0650941 C12.4666667,17.0001041 13.3329989,16.1333333 14.3983178,16.1333333 C15.4625404,16.1333333 16.3295305,17.0001041 16.3295305,18.0650941 C16.3295305,19.1296456 15.4625404,19.9960875 14.3983178,19.9960875" id="Fill-20" fill="#000000" sketch:type="MSShapeGroup"></path>
            <g id="Group-24">
                <mask id="mask-2" sketch:name="Clip 22" fill="white">
                    <use xlink:href="#path-1"></use>
                </mask>
                <g id="Clip-22"></g>
                <path d="M13.5416302,31.7306307 C12.1690056,30.97185 12.9420389,24.5969297 14.1467033,19.7225775 C15.3434741,14.8816639 17.745896,8.88279016 19.0893578,9.12168385 L19.2075438,8.12236491 C17.6326435,7.51038485 14.7664674,11.9810626 13.0491518,19.5804912 C11.1966568,27.7734812 11.346308,31.9208466 13.207793,32.5813948 L13.5498528,31.7332619 C13.5472216,31.731727 13.5442615,31.731727 13.5416302,31.7306307" id="Fill-21" fill="#000000" sketch:type="MSShapeGroup" mask="url(#mask-2)"></path>
                <path d="M16.4124507,32.8236955 C9.38564341,32.8236955 3.66666667,27.1052669 3.66666667,20.0782403 C3.66666667,13.050227 9.38564341,7.33333333 16.4124507,7.33333333 C23.4396966,7.33333333 29.1574673,13.050227 29.1574673,20.0782403 C29.1574673,27.1052669 23.4396966,32.8236955 16.4124507,32.8236955 M16.4124507,8.38100111 C9.96254042,8.38100111 4.71466334,13.6284396 4.71466334,20.0782403 C4.71466334,26.5290277 9.96254042,31.7764662 16.4124507,31.7764662 C22.8625803,31.7764662 28.1100188,26.5290277 28.1100188,20.0782403 C28.1100188,13.6284396 22.8625803,8.38100111 16.4124507,8.38100111" id="Fill-23" fill="#000000" sketch:type="MSShapeGroup" mask="url(#mask-2)"></path>
            </g>
        </g>
    </g>
</svg>